HIERARCHY
ROOT Hips
{
	OFFSET 0.00 0.00 0.00
	CHANNELS 6 Xposition Yposition Zposition Xrotation Yrotation Zrotation
	JOINT LeftUpLeg
	{
		OFFSET 2.63333 0.00000 0.00000
		CHANNELS 3 Xrotation Yrotation Zrotation
		JOINT LeftLeg
		{
			OFFSET 0.00000 -16.49536 0.00000
			CHANNELS 3 Xrotation Yrotation Zrotation
			JOINT LeftFoot
			{
				OFFSET 0.00000 -14.46025 0.00000
				CHANNELS 3 Xrotation Yrotation Zrotation
				JOINT LeftToeBase
				{
					OFFSET 0.00000 -1.61074 6.01136
					CHANNELS 3 Xrotation Yrotation Zrotation
					End Site
					{
						OFFSET 0.00000 0.00000 2.95275
					}
				}
			}
		}
	}
	JOINT RightUpLeg
	{
		OFFSET -2.63333 0.00000 0.00000
		CHANNELS 3 Xrotation Yrotation Zrotation
		JOINT RightLeg
		{
			OFFSET 0.00000 -16.49536 0.00000
			CHANNELS 3 Xrotation Yrotation Zrotation
			JOINT RightFoot
			{
				OFFSET 0.00000 -14.46025 0.00000
				CHANNELS 3 Xrotation Yrotation Zrotation
				JOINT RightToeBase
				{
					OFFSET 0.00000 -1.61074 6.01136
					CHANNELS 3 Xrotation Yrotation Zrotation
					End Site
					{
						OFFSET 0.00000 0.00000 2.95275
					}
				}
			}
		}
	}
	JOINT Spine
	{
		OFFSET 0.00000 0.03937 0.00000
		CHANNELS 3 Xrotation Yrotation Zrotation
		JOINT Spine1
		{
			OFFSET 0.00000 8.73652 0.00000
			CHANNELS 3 Xrotation Yrotation Zrotation
			JOINT Neck
			{
				OFFSET 0.00000 8.59038 0.00000
				CHANNELS 3 Xrotation Yrotation Zrotation
				JOINT Head
				{
					OFFSET 0.00000 7.06117 0.00000
					CHANNELS 3 Xrotation Yrotation Zrotation
					End Site
					{
						OFFSET 0.00000 4.52755 0.00000
					}
				}
			}
			JOINT LeftShoulder
			{
				OFFSET 0.00000 8.59038 0.00000
				CHANNELS 3 Xrotation Yrotation Zrotation
				JOINT LeftArm
				{
					OFFSET 6.99892 -0.00003 0.00000
					CHANNELS 3 Xrotation Yrotation Zrotation
					JOINT LeftForeArm
					{
						OFFSET 10.51892 -0.00004 0.00000
						CHANNELS 3 Xrotation Yrotation Zrotation
						JOINT LeftHand
						{
							OFFSET 8.73923 -0.00003 0.00000
							CHANNELS 3 Xrotation Yrotation Zrotation
							JOINT LeftHandThumb
							{
								OFFSET 0.00000 0.00000 0.00000
								CHANNELS 3 Xrotation Yrotation Zrotation
								End Site
								{
									OFFSET 0.00000 0.00000 3.93700
								}
							}
							JOINT L_Wrist_End
							{
								OFFSET 3.93700 -0.00001 0.00000
								CHANNELS 3 Xrotation Yrotation Zrotation
							}
						}
					}
				}
			}
			JOINT RightShoulder
			{
				OFFSET 0.00000 8.59038 0.00000
				CHANNELS 3 Xrotation Yrotation Zrotation
				JOINT RightArm
				{
					OFFSET -6.99892 -0.00003 0.00000
					CHANNELS 3 Xrotation Yrotation Zrotation
					JOINT RightForeArm
					{
						OFFSET -10.51892 -0.00004 0.00000
						CHANNELS 3 Xrotation Yrotation Zrotation
						JOINT RightHand
						{
							OFFSET -8.73923 -0.00003 0.00000
							CHANNELS 3 Xrotation Yrotation Zrotation
							JOINT RightHandThumb
							{
								OFFSET 0.00000 0.00000 0.00000
								CHANNELS 3 Xrotation Yrotation Zrotation
								End Site
								{
									OFFSET 0.00000 0.00000 3.93700
								}
							}
							JOINT R_Wrist_End
							{
								OFFSET -5.39369 -0.00002 0.00000
								CHANNELS 3 Xrotation Yrotation Zrotation
							}
						}
					}
				}
			}
		}
	}
}
MOTION
Frames: 9
Frame Time: 0.033332
 4.7319 34.3161 -20.3367 28.4398 -0.4078 76.2603 -16.0446 36.4032 30.2666 123.8925 0.0000 0.0000 41.9025 -27.0247 5.1052 -11.6770 0.0000 0.0000 -83.6670 10.4363 -46.3291 21.5846 0.0000 0.0000 -6.3270 -16.3083 -10.9110 2.1390 0.0000 0.0000 15.6809 -3.5801 0.1275 -10.2490 -1.7058 -1.1147 8.3635 -5.3206 -9.5469 -18.7518 44.3402 -22.4919 11.0739 10.5361 5.0725 9.9312 -48.2086 -46.9522 -179.9972 -85.6998 -179.9970 22.5011 18.3914 -11.6894 -0.0000 0.0000 -0.0000 -0.0000 0.0000 -0.0000 8.7639 -17.6630 -19.3139 8.1661 17.6348 59.3748 -0.0012 80.0779 0.0010 13.7161 -19.6455 6.9313 -0.0000 0.0000 -0.0000 -0.0000 0.0000 -0.0000
 4.5320 33.6921 -21.5370 26.6294 2.4614 70.8767 -22.3474 41.8460 26.9211 126.3346 0.0000 0.0000 38.4346 -22.8534 0.8663 -11.6437 -0.0000 0.0000 -86.1867 6.6749 -45.6295 25.2008 -0.0000 0.0000 -9.8214 -17.7866 -13.9943 2.4366 -0.0000 0.0000 15.8536 -2.0887 0.8055 -9.7231 0.1468 -0.9916 7.2335 -6.4465 -8.5090 -16.4275 41.9712 -21.8652 10.6645 9.9126 5.9566 9.5089 -46.9482 -49.1981 -179.9938 -88.0632 -179.9936 19.5115 14.0163 -10.3354 -0.0000 0.0000 -0.0000 -0.0000 0.0000 -0.0000 8.8869 -16.2241 -17.5358 -0.3507 17.6810 62.0259 -0.0011 79.2899 0.0009 15.5622 -19.5989 3.2039 -0.0000 0.0000 -0.0000 -0.0000 0.0000 -0.0000
 4.2321 33.2175 -22.6811 25.6097 3.9155 66.3694 -24.6421 45.5740 23.1997 122.1866 0.0000 0.0000 36.2517 -25.5722 0.1716 -11.7424 0.0000 -0.0000 -89.0567 2.7020 -44.7356 29.2505 -0.0000 0.0000 -11.7454 -16.9249 -15.3172 1.3799 -0.0000 0.0000 15.9416 -1.2028 0.6871 -8.6581 1.0021 -1.7623 7.3675 -5.1302 -9.1642 -16.8103 39.7779 -20.4623 11.3121 10.2802 5.7075 6.9724 -43.1914 -54.3588 -0.0785 -89.8464 -0.0783 15.8231 8.7929 -8.4356 -0.0000 0.0000 -0.0000 -0.0000 0.0000 -0.0000 8.6143 -14.0121 -16.9734 -9.0194 20.5361 65.2483 -0.0009 76.6968 0.0007 9.3175 -16.0194 -0.8977 -0.0000 0.0000 -0.0000 -0.0000 0.0000 -0.0000
 3.6754 32.7294 -23.7934 24.9398 4.8800 59.9178 -27.4138 45.8849 23.3473 114.6707 -0.0000 0.0000 33.2075 -31.4130 3.0992 -12.6567 0.0000 0.0000 -87.4074 -1.9397 -42.2651 30.0471 0.0000 0.0000 -13.8661 -20.5307 -18.0851 1.0331 -0.0000 0.0000 15.8998 -0.4744 0.7871 -8.1604 1.4689 -1.4919 7.3051 -3.7302 -9.3011 -15.3709 38.9074 -20.0910 12.0854 11.2052 5.3926 4.8355 -39.6310 -60.6882 -0.0056 -87.8649 -0.0054 14.3500 7.2384 -6.2310 -0.0000 0.0000 -0.0000 -0.0000 0.0000 -0.0000 8.6672 -12.4212 -16.4464 -16.0094 26.1485 67.6410 -0.0008 75.3963 0.0006 10.0630 -15.0772 -1.8101 -0.0000 0.0000 -0.0000 -0.0000 0.0000 -0.0000
 3.0258 32.3113 -24.7294 21.7642 6.6711 53.5714 -27.8463 43.7778 22.9773 106.3402 -0.0000 0.0000 25.9654 -29.8314 3.4797 -12.7850 -0.0000 0.0000 -83.7613 -5.0281 -41.6333 31.6911 -0.0000 0.0000 -16.0857 -26.2061 -20.3248 0.9557 -0.0000 0.0000 15.5999 -0.4210 0.9822 -7.7191 1.2556 -0.7662 7.4367 -3.0221 -9.2285 -14.2727 37.5364 -18.7731 12.0644 11.5012 5.8696 2.6605 -37.0035 -68.3183 -0.0024 -84.9062 -0.0022 13.1627 6.4045 -5.3722 -0.0000 -0.0000 0.0000 -0.0000 -0.0000 0.0000 8.6280 -11.8325 -16.5322 -19.2440 29.3907 69.7655 -0.0009 76.3770 0.0007 8.1780 -14.2452 -1.3764 -0.0000 -0.0000 0.0000 -0.0000 -0.0000 0.0000
 2.3122 31.9770 -25.5564 17.3189 9.6557 47.2536 -26.8025 40.4713 21.6554 97.0808 -0.0000 0.0000 19.7277 -23.9254 5.3629 -13.4437 -0.0000 -0.0000 -80.5068 -8.7566 -42.6689 34.5632 -0.0000 0.0000 -16.1008 -27.4172 -20.2914 0.3735 0.0000 0.0000 15.4966 -0.1457 1.0525 -7.8876 0.9822 0.8028 7.6630 -3.1514 -8.5012 -13.1120 35.1738 -17.4548 12.1695 11.9555 6.5795 0.5325 -36.9603 -74.9966 -0.0016 -82.7163 -0.0014 11.9894 5.8118 -3.9598 -0.0000 0.0000 -0.0000 -0.0000 0.0000 -0.0000 8.5148 -12.1103 -16.2659 -18.2254 29.7967 70.3454 -0.0011 78.7895 0.0009 4.9648 -12.6319 -2.2678 -0.0000 -0.0000 0.0000 -0.0000 -0.0000 0.0000
 1.5713 31.7318 -26.3485 13.6984 12.7283 41.1765 -23.9398 37.3111 19.3949 84.5677 -0.0000 0.0000 19.2524 -26.0298 5.7359 -14.1374 0.0000 -0.0000 -76.0925 -12.8183 -42.3430 35.3621 -0.0000 0.0000 -14.4031 -24.9798 -19.1201 0.5820 0.0000 -0.0000 15.1543 0.3666 0.8643 -7.5189 1.2036 2.0835 7.2163 -4.1409 -6.5179 -12.0000 34.2237 -16.7466 11.0538 13.0619 8.2447 -0.1975 -38.0437 -80.8401 -0.0015 -82.0116 -0.0013 10.3444 4.6887 -2.5279 -0.0000 0.0000 -0.0000 -0.0000 0.0000 -0.0000 8.2275 -12.5797 -15.1234 -15.4863 28.8396 70.3563 -0.0013 80.6457 0.0011 3.6038 -11.8327 -2.5951 -0.0000 0.0000 -0.0000 -0.0000 0.0000 -0.0000
 0.7810 31.4808 -27.2069 11.4916 15.3416 34.8894 -20.6051 34.4470 16.8737 70.4527 -0.0000 0.0000 19.6341 -33.6488 5.8112 -13.6746 -0.0000 -0.0000 -71.8274 -16.4217 -39.6246 35.8078 -0.0000 0.0000 -11.6360 -22.3558 -17.4720 1.0692 0.0000 0.0000 14.9977 0.8128 0.8098 -7.4904 1.5128 2.9419 7.0499 -4.1656 -4.8284 -12.4858 33.1742 -14.4596 10.6868 14.6954 10.6022 -0.5699 -38.7789 -85.5308 -0.0016 -82.7138 -0.0014 8.0874 3.7953 -1.3537 -0.0000 0.0000 -0.0000 -0.0000 0.0000 -0.0000 8.6617 -12.7482 -13.9367 -13.7643 28.3548 71.3416 -0.0012 80.3863 0.0010 2.5026 -12.1306 -2.1724 -0.0000 -0.0000 0.0000 -0.0000 -0.0000 0.0000
 0.0074 31.0297 -28.0311 10.0638 17.6704 28.4021 -17.1008 30.1485 14.0548 57.3457 -0.0000 0.0000 16.0307 -36.7772 2.4480 -13.6979 0.0000 0.0000 -68.9942 -19.1812 -36.2511 38.6749 -0.0000 0.0000 -8.5537 -16.4632 -15.8618 1.0176 -0.0000 -0.0000 14.5849 1.2915 0.5899 -7.4873 1.7199 4.0749 6.7874 -4.2730 -3.0063 -12.4124 31.7655 -12.2493 10.6425 16.0844 13.0859 -0.0431 -39.9102 -87.8211 -0.0022 -84.6085 -0.0020 7.4981 3.2945 -1.0352 -0.0000 0.0000 -0.0000 -0.0000 0.0000 -0.0000 8.8978 -13.1018 -12.8130 -11.7114 29.2824 72.1618 -0.0011 79.1919 0.0009 0.7652 -12.2704 -1.6939 -0.0000 0.0000 -0.0000 -0.0000 0.0000 -0.0000
